<?xml version="1.0" encoding="UTF-8"?>
<svg width="196px" height="56px" viewBox="0 0 196 56" version="1.1" xmlns="http://www.w3.org/2000/svg" xmlns:xlink="http://www.w3.org/1999/xlink">
    <!-- Generator: Sketch 50.2 (55047) - http://www.bohemiancoding.com/sketch -->
    <title>Logo</title>
    <desc>Created with Sketch.</desc>
    <defs>
        <path d="M0,20.7319903 L0,20.3563645 L7.41575214,9.2797314 L0.722725095,9.2797314 L0.722725095,6.70518937 L12.2077158,6.70518937 L12.2077158,7.1608058 L4.81871606,18.130235 L11.993697,18.130235 L11.993697,20.7319903 L0,20.7319903 Z M20.4709002,21 C16.3481569,21 13.3765879,18.2910408 13.3765879,13.8659952 L13.3765879,13.6515874 C13.3765879,9.30653237 16.3481569,6.40996643 20.3371384,6.40996643 C23.8174137,6.40996643 26.9494968,8.4752901 26.9494968,13.4907816 L26.9494968,14.4292278 L16.696349,14.4292278 C16.8033584,17.0841727 18.1422108,18.5862638 20.5515688,18.5862638 C22.5057253,18.5862638 23.5231378,17.8086234 23.763909,16.4405372 L26.8964037,16.4405372 C26.4412022,19.3907051 24.0585965,21 20.4709002,21 Z M16.7498537,12.2567002 L23.7371567,12.2567002 C23.5766426,9.84296401 22.3452112,8.77010072 20.3371384,8.77010072 C18.382982,8.77010072 17.0712935,10.0841727 16.7498537,12.2567002 Z M29.6177353,20.7319903 L29.6177353,6.70518937 L32.8572395,6.70518937 L32.8572395,8.93090652 C33.5264598,7.56323261 35.079331,6.40996643 37.3816796,6.40996643 C40.1927345,6.40996643 42.1736433,8.04606232 42.1736433,11.9082877 L42.1736433,20.7319903 L38.9345508,20.7319903 L38.9345508,12.2030983 C38.9345508,10.0841727 38.0776524,9.11892561 36.1498367,9.11892561 C34.3298536,9.11892561 32.8572395,10.2453908 32.8572395,12.4715203 L32.8572395,20.7319903 L29.6177353,20.7319903 Z M50.4635801,21 C46.8499546,21 44.7348724,19.3371031 44.6011107,16.3601343 L47.6529367,16.3601343 C47.8134508,17.7818225 48.5361759,18.6130647 50.4368277,18.6130647 C52.1769653,18.6130647 52.9536067,17.9962302 52.9536067,16.816163 C52.9536067,15.6628969 52.0164512,15.2340814 49.9548738,14.8852565 C46.2605797,14.2952229 44.8953865,13.2491606 44.8953865,10.6210167 C44.8953865,7.8044413 47.519175,6.40996643 50.1425518,6.40996643 C53.0071114,6.40996643 55.2827077,7.48282971 55.6308998,10.6474053 L52.6321669,10.6474053 C52.3646434,9.3601343 51.6419183,8.77010072 50.1425518,8.77010072 C48.7506063,8.77010072 47.9204603,9.4405372 47.9204603,10.4329976 C47.9204603,11.4522589 48.5896806,11.8546858 50.8117722,12.2298993 C54.104781,12.73953 56.0589375,13.5439713 56.0589375,16.5213524 C56.0589375,19.3643164 54.0512763,21 50.4635801,21 Z M64.8312397,21 C60.7080848,21 57.7365158,18.2910408 57.7365158,13.8659952 L57.7365158,13.6515874 C57.7365158,9.30653237 60.7080848,6.40996643 64.6970664,6.40996643 C68.1773416,6.40996643 71.3098363,8.4752901 71.3098363,13.4907816 L71.3098363,14.4292278 L61.056277,14.4292278 C61.1632864,17.0841727 62.5017271,18.5862638 64.9114968,18.5862638 C66.8656532,18.5862638 67.8830658,17.8086234 68.1238369,16.4405372 L71.2563316,16.4405372 C70.8007185,19.3907051 68.4185244,21 64.8312397,21 Z M61.1097817,12.2567002 L68.0970846,12.2567002 C67.9365705,9.84296401 66.7051391,8.77010072 64.6970664,8.77010072 C62.7429099,8.77010072 61.4312215,10.0841727 61.1097817,12.2567002 Z M74.218846,20.7319903 L74.218846,0 L75.1292491,0 L75.1292491,9.76256111 C75.7717172,8.07286329 77.752626,6.49036932 80.3496621,6.49036932 C83.3743242,6.49036932 85.3556446,8.15326618 85.3556446,12.0690935 L85.3556446,20.7319903 L84.445653,20.7319903 L84.445653,12.0422925 C84.445653,8.74329976 82.8660295,7.29522295 80.2154887,7.29522295 C77.7258736,7.29522295 75.1292491,9.01172174 75.1292491,12.2298993 L75.1292491,20.7319903 L74.218846,20.7319903 Z M95.0214754,20.1415444 C98.1535585,20.1415444 100.750595,17.7282205 100.750595,13.8123932 L100.750595,13.5979855 C100.750595,9.62855628 98.1272177,7.29522295 95.0482277,7.29522295 C91.9161446,7.29522295 89.2660154,9.70895918 89.2660154,13.6247865 L89.2660154,13.8391942 C89.2660154,17.6746186 91.8626399,20.1415444 95.0214754,20.1415444 Z M94.9951346,20.9468104 C91.3267697,20.9468104 88.3284483,17.9694292 88.3284483,13.8391942 L88.3284483,13.6247865 C88.3284483,9.41373623 91.4074383,6.51717029 95.0482277,6.51717029 C98.6890171,6.51717029 101.687338,9.30653237 101.687338,13.5979855 L101.687338,13.8123932 C101.687338,18.0498321 98.6626764,20.9468104 94.9951346,20.9468104 Z M104.794316,20.7319903 L104.794316,6.70518937 L105.704719,6.70518937 L105.704719,9.68215821 C106.347598,8.01926135 108.114488,6.49036932 110.550599,6.49036932 C112.825783,6.49036932 114.432159,7.48282971 114.940866,9.95016787 C115.744259,7.88525652 117.698416,6.49036932 120.053857,6.49036932 C122.864912,6.49036932 124.685307,7.99246039 124.685307,11.9082877 L124.685307,20.7319903 L123.775316,20.7319903 L123.775316,11.8814867 C123.775316,8.58249396 122.38337,7.29522295 119.920096,7.29522295 C117.591406,7.29522295 115.208801,9.01172174 115.208801,12.2030983 L115.208801,20.7319903 L114.298398,20.7319903 L114.298398,11.8814867 C114.298398,8.58249396 112.90604,7.29522295 110.443178,7.29522295 C108.087324,7.29522295 105.704719,9.01172174 105.704719,12.2030983 L105.704719,20.7319903 L104.794316,20.7319903 Z M134.191035,20.9468104 C130.121385,20.9468104 127.658522,17.9962302 127.658522,13.8391942 L127.658522,13.6247865 C127.658522,9.4405372 130.335816,6.49036932 134.003357,6.49036932 C137.457292,6.49036932 140,8.85091595 140,13.2491606 L140,13.6515874 L128.595678,13.6515874 C128.62243,17.7282205 130.603339,20.1415444 134.191035,20.1415444 C136.599982,20.1415444 138.420376,19.0690935 138.982999,16.869765 L139.892991,16.869765 C139.250523,19.471108 137.081936,20.9468104 134.191035,20.9468104 Z M128.62243,12.8735348 L139.090008,12.8735348 C138.982999,9.17252754 136.975338,7.29522295 134.003357,7.29522295 C131.031788,7.29522295 128.836449,9.49455145 128.62243,12.8735348 Z" id="path-1"></path>
        <path d="M32.6326906,42.9613004 C32.2793965,42.9613004 31.9394435,43.0170537 31.6195024,43.1181991 L28.6347847,40.1270097 L28.6347847,21.408948 C28.6347847,20.5659877 27.9494435,19.8828863 27.1035141,19.8828863 C26.2578318,19.8828863 25.5724906,20.5659877 25.5724906,21.408948 L25.5724906,40.7563313 C25.5724906,41.1596793 25.7325847,41.5467454 26.0181847,41.8324194 L29.4493376,45.2711154 C29.3438435,45.5950273 29.2855376,45.939415 29.2855376,46.2976176 C29.2855376,48.13723 30.7871612,49.6339348 32.6326906,49.6339348 C34.4787141,49.6339348 35.9805847,48.13723 35.9805847,46.2976176 C35.9805847,44.4580053 34.4787141,42.9613004 32.6326906,42.9613004" id="path-3"></path>
        <path d="M22.5314929,47.1544176 L22.5314929,13.6703648 C22.5314929,12.8274044 21.8459047,12.1440564 21.0002224,12.1440564 C20.15454,12.1440564 19.4689518,12.8274044 19.4689518,13.6703648 L19.4689518,47.1541709 C17.6995165,47.7837392 16.4274106,49.4657128 16.4274106,51.4429815 C16.4274106,53.9555806 18.47874,55.9999507 20.9999753,55.9999507 C23.5212106,55.9999507 25.57254,53.9555806 25.57254,51.4429815 C25.57254,49.4662062 24.3006812,47.7844793 22.5314929,47.1544176" id="path-5"></path>
        <path d="M9.36728471,42.9613004 C9.72033176,42.9613004 10.0605318,43.016807 10.3804729,43.1179524 L13.3651906,40.126763 L13.3651906,21.408948 C13.3651906,20.5659877 14.0507788,19.8828863 14.8964612,19.8828863 C15.7421435,19.8828863 16.4274847,20.5659877 16.4274847,21.408948 L16.4274847,40.7563313 C16.4274847,41.1596793 16.2671435,41.5467454 15.9817906,41.8321727 L12.5503906,45.2711154 C12.6561318,45.5950273 12.7141906,45.939415 12.7141906,46.2976176 C12.7141906,48.13723 11.2128141,49.6336881 9.36728471,49.6336881 C7.52126118,49.6336881 6.01939059,48.13723 6.01939059,46.2976176 C6.01939059,44.4580053 7.52126118,42.9613004 9.36728471,42.9613004" id="path-7"></path>
        <path d="M32.8850365,40.1854767 L36.8624365,40.1854767 C38.2761071,40.1864634 39.5706953,39.6099348 40.4951894,38.6860581 C41.4226482,37.7644018 42.0007659,36.4741815 42.0000247,35.0653004 L42.0000247,15.836578 C42.0000247,13.3461815 40.7153188,11.0306925 38.5995071,9.7061815 L24.8625424,1.10857797 C23.6828365,0.369970044 22.3398247,-0.000320704846 21.0000247,-7.40088106e-05 C19.6599776,-0.000320704846 18.3172129,0.369970044 17.13726,1.10857797 L3.40054235,9.7061815 C1.28448353,11.0306925 2.47058824e-05,13.3461815 2.47058824e-05,15.836578 L2.47058824e-05,35.0653004 C-0.000716470588,36.4741815 0.577401176,37.7644018 1.50461294,38.6858115 C2.42935412,39.6099348 3.72369529,40.1864634 5.13736588,40.1854767 L9.11501294,40.1854767 C9.99553059,40.1854767 10.7092835,39.4740053 10.7092835,38.5967542 C10.7092835,37.7190097 9.99553059,37.0075383 9.11501294,37.0075383 L5.13736588,37.0075383 C4.59433059,37.0065515 4.11726,36.7926661 3.75951882,36.4386573 C3.40424824,36.0821815 3.18955412,35.6065515 3.18881294,35.0653004 L3.18881294,15.836578 C3.18856588,14.4395383 3.90923647,13.1406837 5.09635412,12.3976352 L18.8330718,3.80003172 C19.4964247,3.38508899 20.2467424,3.17835771 21.0000247,3.17811101 C21.75306,3.17835771 22.5033776,3.38484229 23.1667306,3.80003172 L36.9036953,12.3976352 C38.0905659,13.1406837 38.8112365,14.439785 38.8112365,15.836578 L38.8112365,35.0653004 C38.8102482,35.6065515 38.5955541,36.0821815 38.2405306,36.4386573 C37.8827894,36.7926661 37.4057188,37.0065515 36.8624365,37.0075383 L32.8850365,37.0075383 C32.0045188,37.0075383 31.2905188,37.7190097 31.2905188,38.5967542 C31.2905188,39.4740053 32.0045188,40.1854767 32.8850365,40.1854767" id="path-9"></path>
    </defs>
    <g id="Symbols" stroke="none" stroke-width="1" fill="none" fill-rule="evenodd">
        <g id="ðŸŒ-Globals/Header" transform="translate(-175.000000, -24.000000)">
            <g id="Header-(Dark-on-Light)">
                <g id="Logo" transform="translate(175.000000, 24.000000)">
                    <g id="Atoms/Logotype" transform="translate(56.000000, 11.000000)">
                        <mask id="mask-2" fill="white">
                            <use xlink:href="#path-1"></use>
                        </mask>
                        <use id="Logotype" fill="#000000" fill-rule="evenodd" xlink:href="#path-1"></use>
                        <g id="_Colors/Primary-Tones/06" mask="url(#mask-2)" fill-rule="evenodd">
                            <g transform="translate(-0.748663, -0.750000)">
                                <g id="_Colors/Primary" fill="none">
                                    <rect id="Color" fill="#4689F4" x="0" y="0" width="141" height="23"></rect>
                                    <rect id="Color" fill="#284150" x="0" y="0" width="141" height="23"></rect>
                                </g>
                                <rect id="Overlay" fill="#000000" opacity="0.200000003" x="0" y="0" width="141" height="23"></rect>
                            </g>
                        </g>
                    </g>
                    <g id="Atoms/Logo">
                        <mask id="mask-4" fill="white">
                            <use xlink:href="#path-3"></use>
                        </mask>
                        <use id="Mask" fill="#000000" fill-rule="evenodd" xlink:href="#path-3"></use>
                        <g id="_Colors/Quaternary-Tones/05" mask="url(#mask-4)" fill-rule="evenodd">
                            <g transform="translate(24.952941, 19.242291)" id="_Colors/Quaternary">
                                <g>
                                    <rect id="Color" fill="#F05A26" x="0" y="0" width="12" height="31"></rect>
                                </g>
                            </g>
                        </g>
                        <mask id="mask-6" fill="white">
                            <use xlink:href="#path-5"></use>
                        </mask>
                        <use id="Mask" fill="#000000" fill-rule="evenodd" xlink:href="#path-5"></use>
                        <g id="_Colors/Secondary" mask="url(#mask-6)" fill="#00AAA0" fill-rule="evenodd">
                            <g transform="translate(15.811765, 11.594714)" id="Color">
                                <rect x="0" y="0" width="10" height="45"></rect>
                            </g>
                        </g>
                        <mask id="mask-8" fill="white">
                            <use xlink:href="#path-7"></use>
                        </mask>
                        <use id="Mask" fill="#000000" fill-rule="evenodd" xlink:href="#path-7"></use>
                        <g id="_Colors/Tertiary-Tones/05" mask="url(#mask-8)" fill-rule="evenodd">
                            <g transform="translate(5.435294, 19.242291)" id="_Colors/Tertiary">
                                <g>
                                    <rect id="Color" fill="#8CC841" x="0" y="0" width="12" height="31"></rect>
                                </g>
                            </g>
                        </g>
                        <mask id="mask-10" fill="white">
                            <use xlink:href="#path-9"></use>
                        </mask>
                        <use id="Mask" fill="#000000" fill-rule="evenodd" xlink:href="#path-9"></use>
                        <g id="_Colors/Primary-Tones/06" mask="url(#mask-10)" fill-rule="evenodd">
                            <g transform="translate(-0.494118, -0.493392)">
                                <g id="_Colors/Primary" fill="none">
                                    <rect id="Color" fill="#4689F4" x="0" y="0" width="43" height="41"></rect>
                                    <rect id="Color" fill="#284150" x="0" y="0" width="43" height="41"></rect>
                                </g>
                                <rect id="Overlay" fill="#000000" opacity="0.200000003" x="0" y="0" width="43" height="41"></rect>
                            </g>
                        </g>
                    </g>
                </g>
            </g>
        </g>
    </g>
</svg>